<svg id="Layer_1" data-name="Layer 1" xmlns="http://www.w3.org/2000/svg" viewBox="0 0 1267.41 550.01"><defs><style>.cls-1{fill:#8d734a;}</style></defs><title>southerngrove</title><path class="cls-1" d="M51.17,822q14,0,24.16,3.68l7.82,2.63q4.8,1.75,4.8,5.42v2.84a34.83,34.83,0,0,0,.35,5L89,848.49a48.21,48.21,0,0,1,.53,6.75q0,6.93-4,7.11-2.18.18-4-4.62-9.77-27-36.6-27-10.66,0-17.5,6.06A20.68,20.68,0,0,0,28,868q7.37,6.06,29.76,14.8,22.21,8.69,30.82,18.35t8.62,26q0,20-14.83,34.31A49.34,49.34,0,0,1,46.9,975.69q-14.75,0-32-8.35-4.09-2-5.15-2l-4.62-.53a4.39,4.39,0,0,1-4.44-4.42l-0.18-7.61L0,930.17l0.36-5.31q0.72-4.78,4-5t4.35,5.33q3.73,19.55,14.48,30.56a34.81,34.81,0,0,0,25.85,11q13,0,21.23-7.66t8.26-19.6q0-18.17-20.08-27.08l-15.63-6.95q-21.32-9.22-30.2-19.06t-8.88-24q0-17,13.68-28.72T51.17,822ZM204,822q32,0,54.9,22.45T281.76,898q0,33.72-22.56,55.72t-57,22q-33.76,0-55.52-21.38t-21.76-54.74q0-32.29,23.1-54.92T204,822Zm-4.52,7.11q-22.17,0-35.74,16.43t-13.57,43.08q0,33.94,16.94,56.76t42.12,22.83q22,0,34.67-16.17t12.68-43.88q0-35-16-57T199.43,829.12ZM428.51,949q-20.61,26.65-50.1,26.65-24.88,0-38.82-15.37t-13.95-42.9l0.18-11.73v-58.8q0-9.06-3.73-12.61t-13.86-4.09q-4.44-.35-4.26-3.64,0.18-3.12,11-3.64l13.45-.53a95.09,95.09,0,0,0,13.27-2.49,15.22,15.22,0,0,1,3.89-.71q4.78,0,4.78,8.35v2.66l-0.71,79.41v5.68l2.85,21.5a37.52,37.52,0,0,0,13.89,18.83,36.51,36.51,0,0,0,22.08,7.46,45.05,45.05,0,0,0,27.87-9.2q12.2-9.2,12.2-21V848q0-10.13-3.46-13.86t-12.88-3.73q-5.69,0-5.69-3.3,0-4,6.4-4.16l5.86-.36,12.44-.53A57.57,57.57,0,0,0,445,819.17a25.24,25.24,0,0,1,4.26-.89q3.73-.17,3.73,6.39V940q0,13.67,2.93,18t12,4.35h2.84l2.49-.18q3.91,0,4.09,2.73,0.17,3.83-10.3,4.37l-11.19.71q-11.55.53-14.92,1.42a29.35,29.35,0,0,1-6.57,1.07q-5.69,0-5.69-16.65Zm113-105.53v89.36q0,17.41,5,22.56,7.28,7.64,20.79,7.64,10.83,0,18.3-3.91l9.24-4.44,1.07-.36q2.13,0,2.13,1.94,0,5.82-14,12.6t-26.12,6.78q-40.86,0-40.86-42.58v-89.6H501.17q-4.62,0-4.62-2.69,0-2.49,4.62-6.42Q522,816.77,533,799.12q4.8-7.84,6.75-7.84,2.49,0,2.49,4.62l-0.71,30.73h37.84q7.82,0,12.08-2.84a10.79,10.79,0,0,1,3.91-2.13q2-.35,1.78,2a16.9,16.9,0,0,1-1.6,4.48l-4.09,10.21q-2,5.2-7.82,5.19H541.5Zm113.35,6.75Q677.72,822,704.68,822q25,0,40.53,17.23t15.52,45.12v56.32q0,13.5,4.44,18.48T784,966.45q4.8,0.71,4.8,3.91t-4.8,3.2q-2.13,0-8.71-.53-13.15-.89-22.56-0.89a201.94,201.94,0,0,0-23.1.95q-4.26.47-5.51,0.47-4.8,0-5-3.28-0.18-2.19,3.55-3.65,9.06-3.36,11.19-6.1t2.13-10.7l0.18-5.49V885.42q0-22.47-11.52-35.65t-30.85-13.18a43,43,0,0,0-26.95,9.31q-12.05,9.31-12.05,20.89v68.88q0,18.15,4.09,23.5t19.9,7.47q6,0.87,6,4.34,0,2.95-3.92,2.95-2,0-9.8-.79-6.41-.63-27.07-0.63-7.12,0-20.48.95-5.88.47-8.19,0.47-4.28,0-4.45-2.77-0.18-3.12,4.09-4.33,10.48-3.19,12.88-7.28t2.4-19.35v-185q0-21.83-11.9-21.12l-9.06.53a5.35,5.35,0,0,1-2.49-.55,2.54,2.54,0,0,1-1.24-2.37q0-2.56,4.1-3.65a126.28,126.28,0,0,0,25-9.24l13.91-6.57a8.64,8.64,0,0,1,3.74-1.07q3,0,3,3.91,0,1.07-.35,4.26-0.18,3-.18,9.06V850.26Zm176.24,32.51-0.18,3.91q0,30.38,16.82,51.08t41.38,20.7q19.4,0,42.18-17.41a6,6,0,0,1,2.67-1.24q2.49-.18,2.49,2.83,0,5.3-12.44,15-23.1,18-48.86,18-29,0-48.59-22t-19.63-54.48a79.53,79.53,0,0,1,20.25-54Q847.42,822,874.61,822q29.67,0,47.43,24.69a92.18,92.18,0,0,1,8.71,16.34q4.44,10.31,4.44,14.39,0,5.86-11.57,5.86l-13.17-.18-12.1-.36H831.08Zm1.07-9.77h60.23q14,0,14-5.69,0-13.86-12-25.76t-26-11.9q-14.57,0-24.25,11.64T832.15,873Zm175.7-18.65q20.61-32.33,38-32.33,5.5,0,14.48,6.57t9.33,10.66q0.18,2.64-5.67,9.76t-8.32,7.29q-1.24,0-7.79-4.26-7.62-5.33-14.53-5.33a23.64,23.64,0,0,0-18.07,7.83q-7.26,7.83-7.26,19.53v63.3q0,14.9,4,21.19t13.95,7.18l9.24,0.71q5.68,0.36,5.68,3.55,0,3.55-5,3.55-1.25,0-8.37-.89-3.39-.36-10-0.36l-12.82-.18h-7.84q-13.89,0-19.76.89-4.63.71-6.41,0.89-4.81.17-4.81-3.47,0-2.95,5.51-4,7.64-1.77,9.86-6.57t2.22-20.43V863.23q0-20.43-19.54-20.43l-6,.18q-4.09,0-4.09-3.65,0-2.19,2.67-3.28a28.63,28.63,0,0,1,3.91-.53q16.7-1.6,39.44-15.63a11.29,11.29,0,0,1,4.09-1.42q4.08-.18,4.09,6l-0.18,3.38v26.47ZM1134,850.26q23.8-28.25,49.39-28.25,28.42,0,44.95,23.3,11.37,16,11.37,48.74v42.51l-0.18,5.34,0.53,8.54q2,11.74,14.92,13.7l7.46,1.07q4.8,0.7,5,3.47,0.18,3.81-5.85,3.81a67,67,0,0,1-6.91-.61q-5.85-.82-21.62-0.81l-17.54.53h-6.73l-5.14.36-2.48-.55a2.9,2.9,0,0,1-1.24-2.74q0-2.74,3.2-3.47l5.33-1.42q7.1-1.77,7.11-12.77V889.81q0-24.66-11.4-38.05t-32.4-13.39a42.33,42.33,0,0,0-26.26,8.71Q1134,855.77,1134,867v67.81l0.18,5.34,0.18,8.9q0.89,15,24.69,16.38,5.86,0.55,5.86,3.83t-4.09,3.28a60,60,0,0,1-9.06-1q-3.38-.41-16.7-0.41-28.25,0-33.75.81-5.51.61-7.11,0.61-3.38,0-3.2-2.92,0.18-2.19,3.38-3.47,9.06-3.19,12.17-7.81t3.11-14.9V863.2q0-12.6-3-17.12t-11.37-4.52l-7.64.18a5.49,5.49,0,0,1-2.84-.73,2.59,2.59,0,0,1-1.6-2.55q0-2.55,4.62-3.47a92.22,92.22,0,0,0,22.92-7.28l9.42-4.62q5.5-2.66,6.93-3.38a9,9,0,0,1,4.26-1.42q3.2,0,2.84,5.15-0.18,2.84-.18,6.75v20.08Zm-578.1,346.17v-1.24q-12.08-9.23-12.08-20.05,0-20.76,20.79-35.31-23.63-14-23.63-43.88,0-23.09,15.54-38.46t39-15.37a69.71,69.71,0,0,1,38,10.66q6,3.91,8.71,3.91,6.4,0,14.39-4.53t9.59-9l2.31-6.75a2.85,2.85,0,0,1,2.84-2.13q3-.18,3,4.28,0,3.57-2.75,13.83t-4.89,14.36q-3,5.89-10.48,8-3.38,1.07-3.38,3.19a14.71,14.71,0,0,0,.53,3.37,57.34,57.34,0,0,1,1.6,15.06q0,20.2-16.52,35.27a55.42,55.42,0,0,1-38.55,15.06,119.3,119.3,0,0,1-21.14-2.13,28.59,28.59,0,0,0-5.69-.71q-5.57,0-10.78,6.19T557.13,1163q0,9.19,9.79,13.08T600.2,1180q35.06,0,49.56,7.28t14.5,25q0,20.43-20.34,34.64t-49.83,14.21q-28.43,0-46.1-9.75t-17.68-25.72Q530.31,1205.12,555.89,1196.43Zm7.82,2.7q-16.88,7.47-16.88,24.53,0,14.22,11.86,22.31t32.54,8.09q24.25,0,40.47-9.33t16.23-23.36q0-16.52-25-16.52-3.38,0-18.83-1.07l-18.83-1.25Q571.88,1201.63,563.71,1199.13Zm32.52-151q-13.43,0-22.71,12t-9.28,29q0,22.12,10,36.28t25.36,14.16A28.31,28.31,0,0,0,623,1128.23q8.92-11.41,8.92-30,0-21.59-10.16-35.84T596.23,1048.16Zm141,26.29q20.61-32.33,38-32.33,5.5,0,14.48,6.57t9.33,10.66q0.18,2.64-5.67,9.76t-8.32,7.29q-1.24,0-7.79-4.26-7.62-5.33-14.53-5.33a23.64,23.64,0,0,0-18.07,7.83q-7.26,7.83-7.26,19.53v63.3q0,14.9,4,21.19t13.95,7.18l9.24,0.71q5.68,0.36,5.68,3.55,0,3.55-5,3.55-1.25,0-8.37-.89-3.39-.36-10-0.36l-12.82-.18h-7.84q-13.89,0-19.76.89-4.63.71-6.41,0.89-4.81.18-4.81-3.47,0-2.95,5.51-4,7.64-1.77,9.86-6.57t2.22-20.43v-76.21q0-20.43-19.54-20.43l-6,.18q-4.09,0-4.09-3.65,0-2.19,2.67-3.28a28.63,28.63,0,0,1,3.91-.53q16.7-1.6,39.44-15.63a11.29,11.29,0,0,1,4.09-1.42q4.08-.18,4.09,6l-0.18,3.38v26.47Zm151.54-32.33q32,0,54.9,22.45t22.92,53.5q0,33.72-22.56,55.72t-57,22q-33.76,0-55.52-21.38t-21.76-54.74q0-32.29,23.1-54.92T888.82,1042.11Zm-4.52,7.11q-22.17,0-35.74,16.43T835,1108.74q0,33.94,16.94,56.76T894,1188.33q22,0,34.67-16.17t12.68-43.88q0-35-16-57T884.29,1049.22Zm172.6,115.83,30-63.07q9.1-19.54,9.1-33.4,0-12.26-17.05-15.1-4.8-.69-4.8-3.47,0-3.64,4.6-3.64a56.67,56.67,0,0,1,6.55.53q3.72,0.36,12.93.36,18.24,0,24.27-.53,5-.35,6.55-0.36,4.25,0,4.07,3-0.18,2.26-7.46,5T1112,1070.74L1054,1191.68q-2.13,4.46-5.86,4.47-4.44,0-6.57-5l-51.52-117q-7.11-16-19.36-20.63-3.73-1.39-3.73-3.64,0-3.64,5.32-3.64a33.32,33.32,0,0,1,4.08.36q8.68,1.07,32.25,1.07,10.81,0,15.06-.36,5.85-.53,8-0.53,4.07-.17,4.08,3.65,0,2.74-5,3.28-16.17,2.13-16.17,10.27,0,4.43,3.21,11.87Zm100.55-62.18-0.18,3.91q0,30.38,16.82,51.08t41.38,20.7q19.4,0,42.18-17.41a6,6,0,0,1,2.67-1.24q2.49-.18,2.49,2.83,0,5.3-12.44,15-23.1,18-48.86,18-29,0-48.59-22t-19.63-54.48a79.53,79.53,0,0,1,20.25-54q20.25-23.16,47.43-23.16,29.67,0,47.43,24.69a92.18,92.18,0,0,1,8.71,16.34q4.44,10.31,4.44,14.39,0,5.86-11.57,5.86l-13.17-.18-12.1-.36h-67.27Zm1.07-9.77h60.23q14,0,14-5.69,0-13.86-12-25.76t-26-11.9q-14.57,0-24.25,11.64T1158.5,1093.1Z" transform="translate(0 -711.16)"/></svg>